<?xml version="1.0" encoding="utf-8"?>
<!-- Generator: Adobe Illustrator 16.0.0, SVG Export Plug-In . SVG Version: 6.00 Build 0)  -->
<!DOCTYPE svg PUBLIC "-//W3C//DTD SVG 1.1//EN" "http://www.w3.org/Graphics/SVG/1.1/DTD/svg11.dtd">
<svg version="1.1" xmlns="http://www.w3.org/2000/svg" xmlns:xlink="http://www.w3.org/1999/xlink" x="0px" y="0px" width="750px"
	 height="500px" viewBox="0 0 750 500" enable-background="new 0 0 750 500" xml:space="preserve">
<g id="BACKGROUND">
</g>
<g id="OBJECTS">
	<g>
		<g>
			<g>
				<g>
					<g>
						<path fill="#2BAC49" d="M618.452,488.307c-1.361,0.423-29.21-30.787-39.475-58.812c-10.258-28.019-13.021-58.411,8.293-49.731
							c21.312,8.688,36.12,14.573,33.751-2.401c-2.368-16.97-23.095-58.771-13.624-73.773c9.474-15,37.925,34.106,44.239,17.139
							c6.316-16.974-1.53-70.419,16.542-84.63c27.863-21.914,35.508,20.846,15.003,60.786c-18.502,36.027-15.271,45.83,3.666,41.189
							c25.003-6.122,53.166,1.432,28.695,34.194c-24.47,32.761-66.297,35.403-53.284,37.101c9.078,1.182,55.692-8.484,41.442,22.496
							C694.627,451.599,657.521,476.07,618.452,488.307z"/>
						<path opacity="0.4" fill="#2BAC49" d="M637.101,375.483c-1.478-5.94-15.055-37.916-4.343-26.184
							c10.715,11.735,11.228,29.088,13.777,20.41c2.553-8.675,15.032-46.623,15.309-29.595c0.185,11.2-14.799,35.21-11.226,35.717
							c3.571,0.513,41.644-11.427,28.574-3.061c-10.496,6.723-27.445,7.932-32.548,14.563c-5.109,6.633-14.492,36.099-13.35,40.479
							c1.804,6.912,26.507-8.605,19.364,1.089c-7.146,9.697-21.305,17.603-26.403,21.176c-5.103,3.575-7.51-2.971-9.826-16.073
							c-4.829-27.313,2.243-30.211,4.877-19.321C627.014,438.278,640.764,390.254,637.101,375.483z"/>
					</g>
					<g>
						<path fill="#2BAC49" d="M201.968,463.192c-0.781,1.082-39.169-6.656-62.594-21.886
							c-23.422-15.226-42.562-36.439-21.726-41.908c20.849-5.462,35.245-9.37,23.938-20.76
							c-11.303-11.376-50.309-31.046-51.639-47.601c-1.327-16.56,47.565,4.247,42.763-12.013
							c-4.798-16.26-40.692-51.89-35.137-72.683c8.564-32.062,38.301-4.325,45.374,37.106c6.376,37.382,14.3,42.905,25.879,28.798
							c15.294-18.627,40.633-28.785,40.701,9.498c0.069,38.28-29.776,63.75-19.08,57.714c7.467-4.209,36.954-37.631,43.68-6.421
							C238.414,392.918,224.364,432.084,201.968,463.192z"/>
						<path opacity="0.4" fill="#2BAC49" d="M152.577,368.211c-4.443-3.625-32.575-19.951-17.96-17.179
							c14.619,2.774,24.747,15.482,21.787,7.552c-2.961-7.931-14.927-43.365-5.155-30.765c6.429,8.287,8.685,34.686,11.649,33.058
							c2.968-1.62,24.775-31.948,19.687-18.341c-4.087,10.935-16.105,21.355-16.205,29.188c-0.097,7.837,9.42,35.18,12.735,37.817
							c5.233,4.166,15.024-21.331,15.115-10.057c0.097,11.275-6.072,25.149-7.884,30.69c-1.818,5.542-7.293,1.989-16.387-6.522
							c-18.955-17.744-15.286-23.891-7.197-17.213C180.285,420.912,163.615,377.215,152.577,368.211z"/>
					</g>
				</g>
				<g>
					<g>
						<ellipse opacity="0.5" fill="#80B2F0" cx="390.481" cy="488.983" rx="330.121" ry="9.004"/>
						<g>
							<g>
								<g>
									<path fill="#3D5376" d="M623.145,449.844c0,7.029-5.755,12.783-12.785,12.783H170.605c-7.025,0-12.783-5.754-12.783-12.783
										v-274.29c0-7.028,5.758-12.786,12.783-12.786h439.754c7.03,0,12.785,5.757,12.785,12.786V449.844z"/>
									<rect x="172.74" y="179.229" fill="#C4D9FF" width="435.488" height="283.397"/>
									<path fill="#445275" d="M103.891,453.038v22.375c0,7.027,5.75,12.785,12.786,12.785h547.617
										c7.029,0,12.778-5.758,12.778-12.789v-22.371H103.891z"/>
									<rect x="347.666" y="453.038" fill="#607191" width="85.631" height="9.793"/>
									<path opacity="0.4" fill="#A0A0A0" d="M103.891,475.413c0,7.027,5.75,12.785,12.786,12.785h547.617
										c7.029,0,12.778-5.758,12.778-12.789v-2.125H103.891V475.413z"/>
								</g>
							</g>
							<polygon opacity="0.4" fill="#C4D9FF" points="608.229,179.229 608.229,453.038 172.74,453.038 							"/>
						</g>
					</g>
					<g>
						<g>
							<path fill="#FEFFFE" d="M487.429,410.22c0,5.933-4.853,10.784-10.787,10.784h-256.76c-5.932,0-10.789-4.852-10.789-10.784
								V219.707c0-5.933,4.857-10.787,10.789-10.787h256.76c5.935,0,10.787,4.854,10.787,10.787V410.22z"/>
							<g>
								<g>
									<path fill="#C4D9FF" d="M475.535,318.062c0,2.356-1.928,4.284-4.284,4.284h-75.127c-2.356,0-4.284-1.928-4.284-4.284
										v-52.836c0-2.356,1.928-4.284,4.284-4.284h75.127c2.356,0,4.284,1.928,4.284,4.284V318.062z"/>
								</g>
								<g>
									<path fill="#C4D9FF" d="M381.318,352.696c0,2.356-1.928,4.284-4.284,4.284H230.719c-2.356,0-4.284-1.928-4.284-4.284
										v-87.471c0-2.356,1.928-4.284,4.284-4.284h146.315c2.356,0,4.284,1.928,4.284,4.284V352.696z"/>
								</g>
								<g>
									<g>
										<path fill="#C4D9FF" d="M475.535,338.288c0,1.178-0.964,2.142-2.142,2.142h-79.412c-1.178,0-2.142-0.964-2.142-2.142
											v-3.283c0-1.178,0.964-2.142,2.142-2.142h79.412c1.178,0,2.142,0.964,2.142,2.142V338.288z"/>
									</g>
									<g>
										<path fill="#C4D9FF" d="M475.535,355.963c0,1.178-0.964,2.142-2.142,2.142h-79.412c-1.178,0-2.142-0.964-2.142-2.142
											v-3.285c0-1.178,0.964-2.142,2.142-2.142h79.412c1.178,0,2.142,0.964,2.142,2.142V355.963z"/>
									</g>
									<g>
										<path fill="#C4D9FF" d="M475.535,373.638c0,1.178-0.964,2.142-2.142,2.142H227.577c-1.178,0-2.142-0.964-2.142-2.142
											v-3.285c0-1.178,0.964-2.142,2.142-2.142h245.817c1.178,0,2.142,0.964,2.142,2.142V373.638z"/>
									</g>
									<g>
										<path fill="#C4D9FF" d="M475.535,391.314c0,1.178-0.964,2.142-2.142,2.142H227.577c-1.178,0-2.142-0.964-2.142-2.142
											v-3.289c0-1.178,0.964-2.142,2.142-2.142h245.817c1.178,0,2.142,0.964,2.142,2.142V391.314z"/>
									</g>
								</g>
							</g>
							<path fill="#FF5F00" d="M476.642,208.92h-256.76c-5.932,0-10.789,4.854-10.789,10.787v24.056h278.336v-24.056
								C487.429,213.773,482.576,208.92,476.642,208.92z"/>
							<g>
								<path fill="#FFFFFF" d="M434.337,225.757c0,2.209-1.788,4.001-4.002,4.001c-2.207,0-4.001-1.792-4.001-4.001
									c0-2.21,1.794-4.002,4.001-4.002C432.549,221.755,434.337,223.547,434.337,225.757z"/>
								<path fill="#FFFFFF" d="M453.018,225.757c0,2.209-1.788,4.001-4.001,4.001c-2.209,0-4.002-1.792-4.002-4.001
									c0-2.21,1.793-4.002,4.002-4.002C451.229,221.755,453.018,223.547,453.018,225.757z"/>
								<circle fill="#FFFFFF" cx="467.696" cy="225.757" r="4.003"/>
							</g>
						</g>
						<g>
							<rect x="297.14" y="320.781" fill="#E74E62" width="10.088" height="21.082"/>
							<rect x="316.308" y="309.568" fill="#E74E62" width="10.087" height="32.295"/>
							<rect x="335.47" y="297.174" fill="#E74E62" width="10.089" height="44.689"/>
							<rect x="354.636" y="284.873" fill="#E74E62" width="10.086" height="56.99"/>
						</g>
					</g>
				</g>
			</g>
			<g>
				<g>
					<path fill="#E74E62" d="M652.515,382.575c0,6.894-5.643,12.537-12.541,12.537H528.463c-6.898,0-12.54-5.644-12.54-12.537
						v-89.934c0-6.896,5.642-12.542,12.54-12.542h111.511c6.898,0,12.541,5.646,12.541,12.542V382.575z"/>
					<g>
						<g>
							<g>
								<path fill="#FFFFFF" d="M584.217,368.51c-19.51,0-35.378-15.872-35.378-35.382c0-19.511,15.868-35.383,35.378-35.383
									c19.513,0,35.383,15.872,35.383,35.383C619.6,352.638,603.729,368.51,584.217,368.51z M584.217,301.947
									c-17.19,0-31.178,13.99-31.178,31.181c0,17.188,13.987,31.178,31.178,31.178c17.191,0,31.182-13.989,31.182-31.178
									C615.398,315.938,601.408,301.947,584.217,301.947z"/>
							</g>
							<polygon fill="#FFFFFF" points="573.162,314.618 605.218,333.128 573.162,351.637 							"/>
						</g>
						<g>
							<rect x="526.818" y="378.88" fill="#FFFFFF" width="92.142" height="6.798"/>
							<rect x="622.731" y="378.88" fill="#FFFFFF" width="18.884" height="6.798"/>
						</g>
					</g>
				</g>
				<g>
					<g>
						<path fill="#4E6BC3" d="M295.271,43.46c-0.024-0.218-0.293-0.833-0.599-1.366c-0.305-0.533-1.735-0.889-1.828-0.882
							c-0.093,0.006-0.66-0.157-1.259-0.362c-0.6-0.206-1.433-1.935-1.586-2.513c-0.154-0.579-0.242-1.571-0.195-2.204
							c0.047-0.633,1.144-1.678,1.229-1.72s0.468-0.458,0.85-0.926c0.382-0.467-0.103-2.349-0.465-2.972l-0.253-0.436
							c-0.363-0.624-1.082-1.394-1.599-1.712c-0.517-0.318-1.917,0.079-1.994,0.13s-0.649,0.193-1.273,0.315
							c-0.623,0.122-2.213-0.953-2.636-1.375c-0.423-0.422-0.998-1.234-1.275-1.806c-0.278-0.571,0.148-2.022,0.199-2.097
							c0.05-0.074,0.173-0.625,0.273-1.225c0.1-0.599-1.246-1.999-1.871-2.36l-0.438-0.254c-0.625-0.361-1.629-0.678-2.232-0.703
							c-0.604-0.025-1.616,1.018-1.659,1.102c-0.042,0.084-0.469,0.496-0.948,0.915c-0.479,0.419-2.391,0.291-2.971,0.14
							c-0.58-0.151-1.485-0.565-2.011-0.921c-0.526-0.356-0.884-1.822-0.878-1.917s-0.161-0.643-0.373-1.22
							c-0.211-0.577-1.628-1.171-1.804-1.188c0,0,0,0-1.201,0c-1.229,0-1.229,0-1.229,0c-0.217,0.022-0.831,0.291-1.364,0.597
							c-0.533,0.306-0.888,1.735-0.881,1.827s-0.156,0.658-0.362,1.258s-1.932,1.431-2.511,1.586
							c-0.579,0.155-1.573,0.243-2.208,0.195c-0.635-0.047-1.675-1.145-1.718-1.229c-0.043-0.084-0.459-0.466-0.925-0.848
							s-2.343,0.101-2.966,0.464l-0.439,0.256c-0.623,0.364-1.394,1.084-1.713,1.601c-0.319,0.516,0.078,1.917,0.127,1.991
							c0.049,0.074,0.19,0.645,0.313,1.268c0.122,0.623-0.95,2.21-1.372,2.635c-0.422,0.424-1.235,1-1.808,1.278
							c-0.572,0.278-2.018-0.151-2.094-0.201c-0.076-0.05-0.629-0.173-1.229-0.272c-0.6-0.1-1.997,1.248-2.358,1.873l-0.254,0.44
							c-0.361,0.625-0.677,1.629-0.702,2.232c-0.024,0.603,1.018,1.615,1.104,1.656c0.086,0.042,0.5,0.467,0.917,0.946
							c0.418,0.479,0.286,2.394,0.133,2.973s-0.567,1.485-0.922,2.013c-0.354,0.527-1.824,0.878-1.918,0.873
							c-0.094-0.006-0.641,0.163-1.217,0.374c-0.576,0.212-1.174,1.633-1.192,1.815c0,0,0,0,0,1.189c0,1.232,0,1.232,0,1.232
							c0.021,0.217,0.29,0.83,0.596,1.362c0.307,0.532,1.735,0.886,1.829,0.88c0.093-0.006,0.66,0.158,1.26,0.363
							c0.6,0.205,1.435,1.934,1.589,2.515c0.155,0.582,0.243,1.576,0.196,2.211c-0.046,0.634-1.145,1.676-1.229,1.72
							c-0.084,0.043-0.467,0.459-0.85,0.925c-0.383,0.465,0.1,2.344,0.463,2.967l0.254,0.437c0.363,0.624,1.084,1.394,1.602,1.712
							c0.518,0.318,1.922-0.076,1.997-0.126c0.074-0.05,0.646-0.192,1.27-0.315c0.624-0.124,2.211,0.951,2.635,1.372
							c0.424,0.42,0.998,1.232,1.276,1.804s-0.149,2.021-0.198,2.097c-0.049,0.076-0.171,0.627-0.271,1.225
							c-0.1,0.598,1.248,2,1.874,2.359l0.432,0.248c0.625,0.359,1.631,0.676,2.234,0.702c0.604,0.026,1.619-1.016,1.661-1.102
							c0.042-0.085,0.468-0.497,0.946-0.915c0.479-0.418,2.396-0.288,2.974-0.136c0.578,0.152,1.481,0.566,2.008,0.921
							c0.526,0.354,0.878,1.822,0.874,1.915s0.166,0.641,0.377,1.218c0.211,0.577,1.626,1.175,1.801,1.192c0,0,0,0,1.189,0
							c1.237,0,1.237,0,1.237,0c0.218-0.023,0.833-0.292,1.366-0.599s0.887-1.732,0.881-1.825s0.158-0.66,0.365-1.259
							s1.933-1.433,2.51-1.587s1.567-0.242,2.202-0.196c0.634,0.046,1.678,1.145,1.72,1.23s0.459,0.468,0.925,0.851
							c0.467,0.383,2.346-0.105,2.97-0.468l0.433-0.252c0.624-0.363,1.395-1.083,1.713-1.599c0.319-0.516-0.073-1.918-0.123-1.992
							s-0.19-0.645-0.312-1.269s0.946-2.216,1.368-2.639s1.236-0.996,1.809-1.273c0.572-0.278,2.02,0.148,2.096,0.198
							c0.076,0.051,0.628,0.174,1.227,0.273c0.599,0.1,1.996-1.245,2.356-1.87l0.254-0.439c0.361-0.625,0.677-1.629,0.703-2.231
							c0.026-0.603-1.018-1.619-1.104-1.661s-0.498-0.468-0.915-0.947s-0.288-2.395-0.135-2.975c0.153-0.579,0.567-1.484,0.921-2.01
							c0.353-0.526,1.824-0.88,1.917-0.873c0.093,0.006,0.642-0.162,1.219-0.374c0.578-0.212,1.175-1.63,1.193-1.804
							c0,0,0,0,0-1.194C295.271,43.46,295.271,43.46,295.271,43.46z M266.474,60.188c-8.556,0-15.496-6.938-15.496-15.494
							c0-8.567,6.94-15.497,15.496-15.497c8.561-0.006,15.501,6.937,15.501,15.497C281.975,53.25,275.034,60.193,266.474,60.188z"/>
					</g>
				</g>
				<g>
					<g>
						<path fill="#FF5F00" d="M121.385,342.399c-0.04-0.363-0.49-1.39-1-2.28c-0.511-0.892-2.902-1.488-3.055-1.478
							c-0.154,0.011-1.102-0.262-2.106-0.606s-2.4-3.231-2.658-4.199c-0.258-0.968-0.405-2.627-0.326-3.688s1.915-2.807,2.057-2.877
							c0.143-0.071,0.782-0.768,1.421-1.549s-0.174-3.922-0.78-4.965l-0.422-0.725c-0.606-1.043-1.81-2.333-2.673-2.867
							c-0.864-0.534-3.211,0.131-3.338,0.217c-0.127,0.085-1.083,0.322-2.126,0.526s-3.7-1.593-4.408-2.299
							s-1.667-2.065-2.131-3.021s0.25-3.379,0.335-3.505c0.084-0.126,0.291-1.048,0.458-2.049c0.167-1-2.085-3.341-3.13-3.944
							l-0.735-0.425c-1.044-0.604-2.724-1.133-3.731-1.175c-1.008-0.042-2.705,1.698-2.775,1.843s-0.783,0.834-1.583,1.531
							c-0.801,0.698-4.005,0.48-4.974,0.227c-0.969-0.255-2.481-0.946-3.361-1.538c-0.879-0.592-1.474-3.048-1.464-3.205
							c0.01-0.157-0.271-1.075-0.625-2.038c-0.354-0.964-2.724-1.957-3.019-1.984c0,0,0,0-2.004,0c-2.059,0-2.059,0-2.059,0
							c-0.364,0.037-1.39,0.486-2.279,0.996c-0.89,0.51-1.485,2.898-1.475,3.054c0.011,0.155-0.261,1.103-0.604,2.105
							c-0.344,1.003-3.23,2.396-4.2,2.653c-0.97,0.259-2.632,0.405-3.692,0.326c-1.061-0.08-2.805-1.917-2.874-2.057
							s-0.764-0.777-1.544-1.418c-0.781-0.64-3.92,0.172-4.963,0.777l-0.733,0.426c-1.043,0.605-2.333,1.808-2.867,2.672
							c-0.533,0.865,0.132,3.21,0.214,3.335s0.317,1.079,0.521,2.121s-1.587,3.7-2.292,4.409c-0.706,0.708-2.065,1.668-3.021,2.132
							s-3.377-0.251-3.505-0.333c-0.128-0.083-1.051-0.289-2.052-0.457c-1-0.167-3.34,2.087-3.942,3.132l-0.423,0.734
							c-0.603,1.045-1.132,2.725-1.175,3.731c-0.044,1.007,1.7,2.702,1.846,2.773c0.146,0.07,0.836,0.783,1.534,1.584
							c0.697,0.8,0.477,4.001,0.223,4.969c-0.253,0.969-0.946,2.481-1.539,3.361s-3.05,1.472-3.207,1.461
							c-0.158-0.011-1.075,0.271-2.038,0.627c-0.964,0.355-1.966,2.73-1.997,3.032c0,0,0,0,0,1.995c0,2.059,0,2.059,0,2.059
							c0.041,0.361,0.492,1.386,1.003,2.277c0.511,0.891,2.902,1.482,3.057,1.473c0.154-0.011,1.102,0.262,2.106,0.605
							c1.004,0.344,2.401,3.233,2.66,4.207c0.259,0.974,0.407,2.638,0.329,3.697c-0.078,1.061-1.916,2.803-2.058,2.873
							c-0.143,0.07-0.783,0.767-1.422,1.547s0.171,3.918,0.778,4.961l0.426,0.731c0.607,1.043,1.812,2.331,2.677,2.864
							s3.21-0.13,3.336-0.215c0.126-0.085,1.081-0.322,2.122-0.527c1.042-0.204,3.703,1.59,4.411,2.295s1.668,2.063,2.132,3.02
							c0.464,0.955-0.251,3.379-0.334,3.504c-0.083,0.126-0.288,1.049-0.455,2.05c-0.167,1.001,2.084,3.339,3.129,3.941l0.731,0.423
							c1.045,0.603,2.726,1.13,3.734,1.172c1.008,0.041,2.708-1.7,2.777-1.843c0.069-0.143,0.782-0.831,1.583-1.53
							c0.802-0.699,4.003-0.481,4.97-0.229c0.967,0.254,2.478,0.945,3.358,1.538c0.88,0.593,1.472,3.05,1.462,3.204
							s0.273,1.07,0.628,2.035c0.354,0.966,2.723,1.968,3.014,1.997c0,0,0,0,1.99,0c2.068,0,2.068,0,2.068,0
							c0.362-0.038,1.387-0.488,2.278-0.999c0.891-0.512,1.486-2.904,1.476-3.059s0.265-1.102,0.612-2.104
							c0.347-1.003,3.23-2.397,4.196-2.655c0.966-0.258,2.624-0.405,3.685-0.327c1.06,0.078,2.804,1.916,2.875,2.058
							s0.768,0.783,1.549,1.426c0.781,0.643,3.919-0.174,4.961-0.781l0.728-0.425c1.042-0.607,2.332-1.811,2.865-2.674
							c0.533-0.862-0.126-3.207-0.209-3.332c-0.083-0.124-0.318-1.079-0.521-2.123s1.588-3.703,2.294-4.411
							c0.706-0.708,2.066-1.667,3.022-2.131s3.376,0.253,3.502,0.337c0.125,0.083,1.047,0.288,2.049,0.456
							c1.001,0.168,3.342-2.084,3.945-3.129l0.424-0.735c0.603-1.045,1.132-2.725,1.176-3.732s-1.703-2.704-1.847-2.775
							c-0.144-0.07-0.833-0.783-1.533-1.584c-0.699-0.8-0.479-4.001-0.225-4.971s0.948-2.482,1.542-3.361s3.053-1.473,3.21-1.464
							c0.157,0.009,1.074-0.273,2.038-0.628s1.964-2.723,1.993-3.012c0,0,0,0,0-1.994
							C121.385,342.399,121.385,342.399,121.385,342.399z M73.233,373.259c-15.901,0-28.797-12.892-28.797-28.792
							c0-15.914,12.896-28.801,28.797-28.801c15.905-0.002,28.801,12.893,28.801,28.801
							C102.034,360.367,89.138,373.261,73.233,373.259z"/>
					</g>
					<g>
						<path fill="#FF5F00" d="M73.233,360.913c-9.086,0-16.454-7.362-16.454-16.447c0-9.093,7.368-16.453,16.454-16.453
							c9.09-0.008,16.461,7.362,16.461,16.453C89.694,353.551,82.323,360.92,73.233,360.913z"/>
					</g>
				</g>
				<g>
					<path fill="#049BA1" d="M279.81,215.593c0,7.485-6.124,13.608-13.609,13.608H145.187c-7.486,0-13.608-6.123-13.608-13.608
						v-97.596c0-7.484,6.123-10.529,13.608-10.529h121.015c7.485,0,13.609,6.122,13.609,13.606V215.593z"/>
					<path fill="#FFFFFF" d="M271.438,210.083c0,6.638-5.432,12.069-12.071,12.069H152.02c-6.638,0-12.072-5.431-12.072-12.069
						v-65.69c0-6.639,5.434-12.069,12.072-12.069h107.348c6.639,0,12.071,5.431,12.071,12.069V210.083z"/>
					<g>
						<circle fill="#FFFFFF" cx="234.553" cy="120.746" r="3.851"/>
						<circle fill="#FFFFFF" cx="246.106" cy="120.746" r="3.851"/>
						<circle fill="#FFFFFF" cx="257.657" cy="120.746" r="3.851"/>
					</g>
					<polygon fill="#F3C12D" points="153.278,208.277 176.676,178.588 194.671,199.28 230.663,158.79 260.356,192.083 
						260.356,210.979 153.278,210.979 					"/>
					<circle fill="#049BA1" cx="187.022" cy="163.74" r="7.65"/>
				</g>
				<g>
					<g>
						<path fill="#F3C12D" d="M160.568,460.667c0-2.442,0.933-4.883,2.794-6.741l36.386-36.396c3.722-3.725,9.765-3.725,13.488,0
							c3.721,3.728,3.721,9.761-0.007,13.482l-36.381,36.386c-3.723,3.731-9.765,3.731-13.491,0.006
							C161.492,465.538,160.568,463.098,160.568,460.667z"/>
					</g>
					<g>
						<path fill="#E74E62" d="M240.288,443.561c-28.241-0.002-51.135-22.901-51.135-51.146c-0.003-28.237,22.894-51.14,51.136-51.14
							c28.244,0,51.133,22.902,51.129,51.14C291.418,420.659,268.532,443.559,240.288,443.561z"/>
						<path fill="#FFFFFF" d="M240.288,428.574c-19.97,0-36.161-16.183-36.161-36.159c0-19.967,16.191-36.166,36.162-36.166
							c19.972,0.004,36.165,16.194,36.162,36.166C276.451,412.392,260.257,428.58,240.288,428.574z"/>
					</g>
				</g>
				<g>
					<path fill="#7DBEEA" d="M438.023,43.398c-1.278,0-2.536,0.067-3.786,0.193c-6.011-13.712-19.681-23.308-35.616-23.308
						c-16.203,0-30.076,9.918-35.923,24.013c-1.516-0.338-3.083-0.548-4.711-0.548c-9.667,0-17.76,6.354-20.573,15.083
						c-14.059,3.02-24.603,15.492-24.603,30.455c0,17.216,13.955,31.171,31.167,31.171c6.615,0,12.732-2.092,17.779-5.605
						c6.931,9.633,19.731,16.119,34.413,16.119c12.38,0,23.428-4.591,30.751-11.793c3.518,1.049,7.244,1.634,11.103,1.634
						c21.382,0,38.707-17.334,38.707-38.707C476.73,60.732,459.405,43.398,438.023,43.398z"/>
					<polygon fill="#F3C12D" points="424.251,111.641 401.812,88.216 379.385,111.641 389.912,111.641 389.912,136.769 
						413.728,136.769 413.728,111.641 					"/>
				</g>
				<g>
					<g>
						<path fill="#FF5F00" d="M715.92,68.669H533.703c-9.449,0-17.183,7.729-17.183,17.179v112.91
							c0,9.445,7.733,17.179,17.183,17.179h49.009l1.139,31.347l53.939-31.347h78.13c9.447,0,17.182-7.734,17.182-17.179V85.848
							C733.102,76.396,725.367,68.669,715.92,68.669z"/>
					</g>
					<g>
						<path fill="#FFFFFF" d="M590.331,135.459l-27.716,10.75l27.716,10.748v17.571l-46.652-19.123v-18.398l46.652-19.117V135.459z"
							/>
						<path fill="#FFFFFF" d="M631.018,95.361h18.296l-30.185,97.356h-18.295L631.018,95.361z"/>
						<path fill="#FFFFFF" d="M705.561,137.008v18.398l-46.651,19.123v-17.571l27.712-10.748l-27.712-10.75v-17.569L705.561,137.008
							z"/>
					</g>
				</g>
			</g>
		</g>
	</g>
</g>
</svg>
